<svg id="i_chat" data-name="i chat" xmlns="http://www.w3.org/2000/svg" viewBox="0 0 36.18 32.65" width="23" height="23"><defs><style>.cls-1{fill:#ed4946;}.cls-1,.cls-2{fill-rule:evenodd;}.cls-2{fill:#fff;}</style></defs><title>i_home</title><g id="Shape_1_copy" data-name="Shape 1 copy"><path class="cls-1" d="M31.21,26.79c-8,0-14.44,5.65-14.44,12.62a12.1,12.1,0,0,0,5.54,9.94c.72.49-.06,3.41-1.41,5-.38.46,2.15,0,4.35-1,1.56-.71,2.08-1.72,2.52-1.62.25.06.49-.07.73,0a13.74,13.74,0,0,0,2.71.28c8,0,14.44-5.65,14.44-12.62S39.18,26.79,31.21,26.79Z" transform="translate(-15.79 -25.85)"/></g><g id="Shape_1" data-name="Shape 1"><path class="cls-2" d="M46.62,39.32c0-7.44-6.9-13.47-15.42-13.47s-15.42,6-15.42,13.47A12.93,12.93,0,0,0,21.7,49.93c.77.53-.8,3.64-2.24,5.38-.41.5,3,0,5.38-1.06,1.67-.76,2.22-1.83,2.69-1.73.26.06.52-.07.78,0a14.67,14.67,0,0,0,2.9.3C39.72,52.79,46.62,46.76,46.62,39.32ZM28.11,50.49c-.38,0-.93-.23-1.27-.06-2,1-1.7.83-2.33,1.36-.88.74-.78.6-.68.35.92-2.13.74-2.74.2-3.08l-.65-.44A11.15,11.15,0,0,1,18,39.4c0-6.33,6-11.56,13.2-11.56S44.31,33.06,44.31,39.4,38.44,50.58,31.2,50.58A24.5,24.5,0,0,1,28.11,50.49ZM52,43.85a11.72,11.72,0,0,0-5.47-9.68c-.06,0-.2-.18-.18-.12a15.33,15.33,0,0,1,.91,3.25c0,.06,0,0,0,0A9.64,9.64,0,0,1,50,43.92a10.09,10.09,0,0,1-4.88,8.34l-.59.4c-.48.31-.64.86.18,2.79.1.22.19.35-.61-.32-.57-.48-.32-.33-2.11-1.23-.31-.15-.81,0-1.15.06a21.15,21.15,0,0,1-6-.28c-.31-.07-.19,0-.08,0a19.53,19.53,0,0,1-4.49.29c-.07,0,.11.07.17.1A15.37,15.37,0,0,0,38,56a13.28,13.28,0,0,0,2.62-.27l.71-.15c.42-.09.92,1,2.43,1.73,2.12,1,5.24,1.41,4.87,1-1.3-1.57-2.72-4.39-2-4.87A11.7,11.7,0,0,0,52,43.85Z" transform="translate(-15.79 -25.85)"/></g></svg>